<?xml version="1.0" encoding="iso-8859-1"?>
<!-- Generator: Adobe Illustrator 19.0.0, SVG Export Plug-In . SVG Version: 6.00 Build 0)  -->
<svg version="1.1" id="Layer_1" xmlns="http://www.w3.org/2000/svg" xmlns:xlink="http://www.w3.org/1999/xlink" x="0px" y="0px"
	 viewBox="0 0 512 512" style="enable-background:new 0 0 512 512;" xml:space="preserve">

<path fill="#DB9616" d="M423.128,227.327c-5.904-0.142-11.826,0.286-17.603,1.273c-4.507,0.769-7.537,5.048-6.766,9.555
	c0.769,4.507,5.043,7.535,9.555,6.767c4.727-0.807,9.579-1.158,14.417-1.041c41.07,0.989,73.68,35.208,72.691,76.279
	c-0.975,40.464-34.2,72.715-74.46,72.713c-0.604,0-1.213-0.008-1.819-0.022c-41.071-0.989-73.68-35.208-72.69-76.279
	c0.519-21.541,10.339-41.794,26.943-55.568c3.519-2.92,4.005-8.138,1.086-11.657c-2.92-3.519-8.137-4.005-11.657-1.086
	c-20.29,16.831-32.289,41.585-32.924,67.912c-1.209,50.198,38.646,92.021,88.844,93.23c0.744,0.018,1.484,0.026,2.224,0.026
	c49.202-0.002,89.815-39.418,91.006-88.871C513.181,270.359,473.326,228.536,423.128,227.327z"/>
<path fill="#DB9616" d="M191.165,299.519c-1.408-6.692-3.581-13.229-6.456-19.43c-1.924-4.148-6.847-5.952-10.993-4.028
	c-4.148,1.923-5.952,6.845-4.028,10.993c2.349,5.066,4.124,10.408,5.274,15.876c0.821,3.9,4.261,6.575,8.093,6.575
	c0.565,0,1.138-0.059,1.713-0.179C189.243,308.384,192.106,303.993,191.165,299.519z"/>
<path fill="#DB9616" d="M178.945,350.206c-4.028-2.165-9.047-0.655-11.211,3.373c-12.616,23.476-36.986,38.52-63.6,39.262
	c-41.047,1.151-75.408-31.334-76.554-72.402c-1.145-41.067,31.335-75.409,72.402-76.554c11.675-0.328,22.914,1.984,33.41,6.862
	c4.146,1.928,9.069,0.128,10.997-4.018c1.927-4.146,0.128-9.07-4.018-10.996c-12.844-5.97-26.585-8.793-40.851-8.399
	c-50.193,1.4-89.89,43.373-88.491,93.566c1.375,49.335,41.944,88.529,90.994,88.526c0.852,0,1.714-0.012,2.572-0.035
	c32.526-0.907,62.306-19.29,77.723-47.976C184.483,357.389,182.972,352.37,178.945,350.206z"/>
<path fill="#DB9616" d="M360.409,224.733l6.051-3.731l0.316,0.677c0.012,0.028,0.021,0.055,0.034,0.083c0.009,0.019,0.021,0.034,0.029,0.052
	l46.591,100.044c1.404,3.014,4.391,4.785,7.51,4.785c1.17,0,2.359-0.249,3.49-0.776c4.145-1.931,5.94-6.855,4.009-10.999
	l-34.957-75.058l-8.03-17.245c11.303-4.2,23.203-6.325,35.484-6.325c4.572,0,8.279-3.707,8.279-8.279s-3.707-8.279-8.279-8.279
	c-14.719,0-28.973,2.64-42.489,7.839l-7.126-15.303c-0.018-0.039-0.041-0.074-0.06-0.113c-0.015-0.031-0.031-0.062-0.046-0.093
	l-11.826-25.404c-2.127-4.575-1.163-10.041,2.381-13.587c2.658-2.644,4.747-5.765,6.21-9.279c1.447-3.477,2.181-7.161,2.181-10.952
	c0-8.076-3.143-15.667-8.857-21.382c-5.717-5.701-13.301-8.84-21.354-8.84h-40.432c-4.572,0-8.279,3.707-8.279,8.279
	s3.707,8.279,8.279,8.279h40.432c3.639,0,7.072,1.423,9.655,4c2.578,2.578,3.999,6.011,3.999,9.666c0,1.595-0.306,3.139-0.91,4.59
	c-0.62,1.49-1.495,2.803-2.615,3.917c-8.46,8.46-10.752,21.437-5.702,32.295l5.85,12.567c-25.962-1.273-82.51,0.778-144.995,33.453
	l-15.78-37.571h7.412c4.572,0,8.279-3.707,8.279-8.279c0-4.572-3.707-8.279-8.279-8.279h-47.463c-4.572,0-8.279,3.707-8.279,8.279
	c0,4.572,3.707,8.279,8.279,8.279h22.093l19.194,45.7c-1.306,0.776-2.599,1.559-3.884,2.348
	c-22.686-21.75-53.192-34.106-84.745-34.106c-40.076,0-77.674,19.679-100.577,52.64c-2.609,3.755-1.68,8.913,2.074,11.523
	c1.44,1,3.086,1.481,4.717,1.481c2.62,0,5.198-1.241,6.806-3.555c19.81-28.51,52.326-45.532,86.981-45.532
	c25.999,0,51.172,9.705,70.461,26.892c-6.081,4.21-12.048,8.632-17.801,13.243c-21.339,17.051-41.258,37.446-59.205,60.616
	c-1.848,2.386-2.252,5.589-1.053,8.358s3.81,4.667,6.815,4.953L210.716,337c1.057,17.832,15.894,32.017,33.986,32.017
	c18.184,0,33.083-14.326,34.007-32.284c15.893-8.267,27.416-23.15,31.281-40.844c3.212-14.721,9.259-28.418,17.971-40.71
	C336.676,242.883,347.595,232.639,360.409,224.733z M165.063,265.605c8.006-6.418,16.419-12.477,25.013-18.017
	c2.31-1.493,4.679-2.971,7.085-4.427l27.118,64.567c-4.515,3.391-8.112,7.841-10.472,12.937l-95.632-9.084
	C132.727,294.302,148.452,278.88,165.063,265.605z M244.702,352.461c-9.646,0-17.495-7.848-17.495-17.495
	c0-0.692,0.039-1.354,0.114-1.966c0.003-0.025,0.007-0.051,0.009-0.076c0.712-6.243,4.774-11.648,10.57-14.093
	c2.162-0.902,4.452-1.36,6.802-1.36c8.749,0,16.2,6.518,17.342,15.223c0.102,0.733,0.153,1.498,0.153,2.273
	C262.198,344.611,254.348,352.461,244.702,352.461z M314.453,245.605c-10.006,14.117-16.95,29.847-20.639,46.753
	c-2.47,11.307-9.247,21.035-18.698,27.31c-5.65-11.191-17.279-18.756-30.413-18.756c-1.74,0-3.462,0.132-5.162,0.391l-27.87-66.357
	c68.244-36.056,130.198-33.145,146.587-31.559l1.166,2.503l-7.705,4.751C336.999,219.721,324.462,231.484,314.453,245.605z"/>
<g>
</g>
<g>
</g>
<g>
</g>
<g>
</g>
<g>
</g>
<g>
</g>
<g>
</g>
<g>
</g>
<g>
</g>
<g>
</g>
<g>
</g>
<g>
</g>
<g>
</g>
<g>
</g>
<g>
</g>
</svg>
