<svg xmlns="http://www.w3.org/2000/svg" viewBox="0 0 64 64"><title>Artboard-9</title><g id="Euro"><path d="M32,7A25,25,0,1,0,57,32,25.028,25.028,0,0,0,32,7Zm0,21a1,1,0,0,1,0,2H23.2a10.15,10.15,0,0,0,0,4H32a1,1,0,0,1,0,2H23.8a11.471,11.471,0,0,0,10.666,7,11.594,11.594,0,0,0,5.1-1.166,1,1,0,0,1,.874,1.8A13.64,13.64,0,0,1,21.659,36H18a1,1,0,0,1,0-2h3.176a11.452,11.452,0,0,1,0-4H18a1,1,0,0,1,0-2h3.659a13.64,13.64,0,0,1,18.778-7.633,1,1,0,0,1-.874,1.8A11.594,11.594,0,0,0,34.462,21,11.471,11.471,0,0,0,23.8,28Z" style="fill:#1D8B8F"/><path d="M32,1A31,31,0,1,0,63,32,31.035,31.035,0,0,0,32,1Zm0,58A27,27,0,1,1,59,32,27.03,27.03,0,0,1,32,59Z" style="fill:#1D8B8F"/></g></svg>